<svg id="Capa_1" enable-background="new 0 0 512 512" height="512" viewBox="0 0 512 512" width="512" xmlns="http://www.w3.org/2000/svg" xmlns:xlink="http://www.w3.org/1999/xlink"><linearGradient id="SVGID_1_" gradientUnits="userSpaceOnUse" x1="15.84" x2="558.827" y1="-84.975" y2="571.716"><stop offset=".0033" stop-color="#ffb3b3"/><stop offset=".992" stop-color="#ffe8dc" stop-opacity="0"/></linearGradient><g><path d="m213.801 18.895c-21.113-15.7-48.009-21.438-74.078-17.877-33.788 4.615-71.455 16.884-89.49 47.23-36.883 62.059-32.785 168.609 26.637 170.658s129.388 2.049 129.239 112.697c-.15 110.648 44.929 231.541 110.498 157.776s114.747-79.913 102.453-151.629 66.428-82.509 66.428-139.87c0-53.422-38.46 4.82-77.392-40.259s-56.654-139.521-134.517-131.325c-34.065 3.586-51.237-1.05-59.778-7.401z" fill="url(#SVGID_1_)"/><g><g><path d="m452.14 173.74v212.52c0 11.046-8.954 20-20 20h-27.4c-2.566 0-4.673-1.947-4.971-4.496-2.226-19.032-18.41-33.804-38.039-33.804-19.638 0-35.823 14.772-38.049 33.804-.298 2.548-2.405 4.496-4.971 4.496h-238.85c-11.046 0-20-8.954-20-20v-212.52c0-11.046 8.954-20 20-20h352.28c11.046 0 20 8.954 20 20z" fill="#00c" opacity=".1"/><path d="m452.14 149.74v212.52c0 11.046-8.954 20-20 20h-27.4c-2.566 0-4.673-1.947-4.971-4.496-2.226-19.032-18.41-33.804-38.039-33.804-19.638 0-35.823 14.772-38.049 33.804-.298 2.548-2.405 4.496-4.971 4.496h-238.85c-11.046 0-20-8.954-20-20v-212.52c0-11.046 8.954-20 20-20h352.28c11.046 0 20 8.954 20 20z" fill="#6c6cff"/><ellipse cx="256" cy="256" fill="#8383ff" rx="174.004" ry="85.47"/><g><path d="m432.14 387.26h-27.4c-5.071 0-9.344-3.833-9.938-8.916-1.959-16.751-16.177-29.384-33.072-29.384-16.901 0-31.124 12.633-33.083 29.385-.596 5.083-4.868 8.915-9.938 8.915h-238.849c-13.785 0-25-11.215-25-25v-212.52c0-13.785 11.215-25 25-25h77.751c2.762 0 5 2.238 5 5s-2.238 5-5 5h-77.751c-8.271 0-15 6.729-15 15v212.52c0 8.271 6.729 15 15 15h238.85c2.554-21.867 21.046-38.3 43.021-38.3 21.968 0 40.456 16.433 43.004 38.223l27.405.077c8.271 0 15-6.729 15-15v-96.191c0-2.762 2.238-5 5-5s5 2.238 5 5v96.191c0 13.785-11.215 25-25 25z" fill="#00c"/></g><g><path d="m452.14 234.778c-2.762 0-5-2.238-5-5v-80.038c0-8.271-6.729-15-15-15h-238.24c-2.762 0-5-2.238-5-5s2.238-5 5-5h238.24c13.785 0 25 11.215 25 25v80.038c0 2.762-2.239 5-5 5z" fill="#00c"/></g><g><circle cx="369.469" cy="178.281" fill="#ff4d4d" r="22.525"/><circle cx="401.567" cy="178.281" fill="#ff9d33" r="22.525"/></g><g><g><g><path d="m108.181 309.967c-2.761 0-5-2.238-5-5v-8.053c0-2.762 2.239-5 5-5s5 2.238 5 5v8.053c0 2.762-2.239 5-5 5z" fill="#d9d9ff"/></g><g><path d="m125.075 309.967c-2.761 0-5-2.238-5-5v-8.053c0-2.762 2.239-5 5-5s5 2.238 5 5v8.053c0 2.762-2.239 5-5 5z" fill="#d9d9ff"/></g><g><path d="m141.968 309.967c-2.761 0-5-2.238-5-5v-8.053c0-2.762 2.239-5 5-5s5 2.238 5 5v8.053c0 2.762-2.238 5-5 5z" fill="#d9d9ff"/></g><g><path d="m158.862 309.967c-2.761 0-5-2.238-5-5v-8.053c0-2.762 2.239-5 5-5s5 2.238 5 5v8.053c0 2.762-2.239 5-5 5z" fill="#d9d9ff"/></g></g><g><g><path d="m189.833 309.967c-2.761 0-5-2.238-5-5v-8.053c0-2.762 2.239-5 5-5s5 2.238 5 5v8.053c0 2.762-2.238 5-5 5z" fill="#d9d9ff"/></g><g><path d="m206.727 309.967c-2.761 0-5-2.238-5-5v-8.053c0-2.762 2.239-5 5-5s5 2.238 5 5v8.053c0 2.762-2.239 5-5 5z" fill="#d9d9ff"/></g><g><path d="m223.621 309.967c-2.761 0-5-2.238-5-5v-8.053c0-2.762 2.239-5 5-5s5 2.238 5 5v8.053c0 2.762-2.239 5-5 5z" fill="#d9d9ff"/></g><g><path d="m240.514 309.967c-2.761 0-5-2.238-5-5v-8.053c0-2.762 2.239-5 5-5s5 2.238 5 5v8.053c0 2.762-2.239 5-5 5z" fill="#d9d9ff"/></g></g><g><g><path d="m271.486 309.967c-2.761 0-5-2.238-5-5v-8.053c0-2.762 2.239-5 5-5s5 2.238 5 5v8.053c0 2.762-2.239 5-5 5z" fill="#d9d9ff"/></g><g><path d="m288.379 309.967c-2.761 0-5-2.238-5-5v-8.053c0-2.762 2.239-5 5-5s5 2.238 5 5v8.053c0 2.762-2.238 5-5 5z" fill="#d9d9ff"/></g><g><path d="m305.273 309.967c-2.761 0-5-2.238-5-5v-8.053c0-2.762 2.239-5 5-5s5 2.238 5 5v8.053c0 2.762-2.239 5-5 5z" fill="#d9d9ff"/></g><g><path d="m322.167 309.967c-2.761 0-5-2.238-5-5v-8.053c0-2.762 2.239-5 5-5s5 2.238 5 5v8.053c0 2.762-2.239 5-5 5z" fill="#d9d9ff"/></g></g><g><g><path d="m353.138 309.967c-2.761 0-5-2.238-5-5v-8.053c0-2.762 2.239-5 5-5s5 2.238 5 5v8.053c0 2.762-2.239 5-5 5z" fill="#d9d9ff"/></g><g><path d="m370.032 309.967c-2.761 0-5-2.238-5-5v-8.053c0-2.762 2.239-5 5-5s5 2.238 5 5v8.053c0 2.762-2.239 5-5 5z" fill="#d9d9ff"/></g><g><path d="m386.925 309.967c-2.761 0-5-2.238-5-5v-8.053c0-2.762 2.239-5 5-5s5 2.238 5 5v8.053c0 2.762-2.239 5-5 5z" fill="#d9d9ff"/></g><g><path d="m403.819 309.967c-2.761 0-5-2.238-5-5v-8.053c0-2.762 2.239-5 5-5s5 2.238 5 5v8.053c0 2.762-2.239 5-5 5z" fill="#d9d9ff"/></g></g></g><g><path d="m145.968 335.634h-37.787c-2.762 0-5-2.238-5-5s2.238-5 5-5h37.787c2.762 0 5 2.238 5 5s-2.238 5-5 5z" fill="#b3b3ff"/></g><g><path d="m175.968 355.314h-67.787c-2.762 0-5-2.238-5-5s2.238-5 5-5h67.787c2.762 0 5 2.238 5 5s-2.238 5-5 5z" fill="#b3b3ff"/></g><g><path d="m229.486 355.314h-25.787c-2.762 0-5-2.238-5-5s2.238-5 5-5h25.787c2.762 0 5 2.238 5 5s-2.239 5-5 5z" fill="#b3b3ff"/></g><path d="m158.862 266.788h-50.681c-2.761 0-5-2.239-5-5v-38.949c0-2.761 2.239-5 5-5h50.681c2.761 0 5 2.239 5 5v38.949c0 2.761-2.239 5-5 5z" fill="#ffab66"/><g><path d="m124.645 226.57c.782 0 1.325.799 1.011 1.515-.732 1.671-1.146 3.597-1.146 5.645 0 1.16.13 2.28.39 3.33h-21.72v-10.49z" fill="#ffd6bb"/><path d="m163.86 226.57v10.49h-21.71c.25-1.05.38-2.17.38-3.33 0-2.047-.414-3.974-1.146-5.645-.314-.717.229-1.515 1.011-1.515z" fill="#ffd6bb"/><path d="m124.9 237.06c.403 1.757 1.136 3.337 2.093 4.628.271.366.271.88.001 1.246-.955 1.295-1.682 2.869-2.094 4.626h-21.72v-10.5z" fill="#ffc599"/><path d="m163.86 237.06v10.5h-21.71c-.412-1.757-1.139-3.331-2.1-4.626-.271-.366-.271-.88.001-1.246.961-1.291 1.688-2.872 2.1-4.628z" fill="#ffc599"/><g fill="#ffd6bb"><path d="m124.51 250.9c0 2.052.413 3.979 1.143 5.644.314.717-.228 1.516-1.011 1.516h-21.462v-10.5h21.72c-.26 1.06-.39 2.18-.39 3.34z"/><path d="m163.86 247.56v10.5h-21.462c-.783 0-1.325-.799-1.011-1.516.73-1.665 1.143-3.592 1.143-5.644 0-1.16-.13-2.28-.38-3.34z"/></g></g><g fill="#fff"><path d="m124.554 194.015h-17.802c-1.864 0-3.276-1.681-2.955-3.517l4.951-28.311c.251-1.436 1.498-2.483 2.955-2.483h17.803c1.864 0 3.276 1.681 2.955 3.517l-4.951 28.311c-.252 1.436-1.499 2.483-2.956 2.483z"/><path d="m158.279 194.015h-17.803c-1.864 0-3.276-1.681-2.955-3.517l4.951-28.311c.251-1.436 1.498-2.483 2.955-2.483h17.803c1.864 0 3.276 1.681 2.955 3.517l-4.951 28.311c-.251 1.436-1.497 2.483-2.955 2.483z"/><path d="m192.004 194.015h-17.803c-1.864 0-3.276-1.681-2.955-3.517l4.951-28.311c.251-1.436 1.498-2.483 2.955-2.483h17.802c1.864 0 3.276 1.681 2.955 3.517l-4.951 28.311c-.25 1.436-1.496 2.483-2.954 2.483z"/></g></g><path d="m382.229 412.564h-1.723l5.258-5.258c1.953-1.952 1.953-5.118 0-7.07-1.951-1.953-5.119-1.953-7.07 0l-5.259 5.259v-1.724c0-2.762-2.238-5-5-5s-5 2.238-5 5v13.793c0 2.762 2.238 5 5 5h13.794c2.762 0 5-2.238 5-5s-2.238-5-5-5z" fill="#4d4dff"/><g fill="#ff8b00"><path d="m410.716 87.516h-1.724l5.259-5.259c1.953-1.952 1.953-5.118 0-7.07-1.951-1.953-5.119-1.953-7.07 0l-5.259 5.259v-1.724c0-2.762-2.238-5-5-5s-5 2.238-5 5v13.794c0 2.762 2.238 5 5 5h13.794c2.762 0 5-2.238 5-5s-2.238-5-5-5z"/><path d="m196.73 426.094h-13.794c-2.762 0-5 2.238-5 5s2.238 5 5 5h1.724l-5.259 5.259c-1.953 1.952-1.953 5.118 0 7.07.976.977 2.256 1.465 3.535 1.465s2.56-.488 3.535-1.465l5.259-5.259v1.724c0 2.762 2.238 5 5 5s5-2.238 5-5v-13.794c0-2.762-2.238-5-5-5z"/></g><g fill="#ff4d4d"><path d="m178.098 77.938h-13.793c-2.762 0-5 2.238-5 5s2.238 5 5 5h1.723l-5.258 5.258c-1.953 1.952-1.953 5.118 0 7.07.976.977 2.256 1.465 3.535 1.465s2.56-.488 3.535-1.465l5.258-5.258v1.723c0 2.762 2.238 5 5 5s5-2.238 5-5v-13.793c0-2.761-2.239-5-5-5z"/><path d="m135.507 63.349c-1.951-1.953-5.119-1.953-7.07 0l-5.259 5.259v-1.724c0-2.762-2.238-5-5-5s-5 2.238-5 5v13.794c0 2.762 2.238 5 5 5h13.794c2.762 0 5-2.238 5-5s-2.238-5-5-5h-1.724l5.259-5.259c1.953-1.952 1.953-5.118 0-7.07z"/></g></g></g></svg>