<svg height="499pt" viewBox="0 -24 499.08102 499" width="499pt" xmlns="http://www.w3.org/2000/svg"><path d="m335.746094 130.222656c0 62.378906-46.78125 113.859375-107.179688 121.238282-4.921875.621093-9.921875.921874-15 .921874-67.480468 0-122.179687-54.699218-122.179687-122.160156 0-67.480468 54.699219-122.179687 122.179687-122.179687 5.078125 0 10.078125.300781 15 .917969 60.398438 7.382812 107.179688 58.863281 107.179688 121.261718zm0 0" fill="#f9d335"/><path d="m335.746094 130.222656c0 73.9375-65.085938 130.324219-137.179688 121.238282 60.398438-7.378907 107.179688-58.859376 107.179688-121.238282 0-62.398437-46.78125-113.878906-107.179688-121.261718 72.273438-9.105469 137.179688 47.457031 137.179688 121.261718zm0 0" fill="#f2c300"/><path d="m228.566406 251.460938c-72.03125 9.078124-137.179687-47.210938-137.179687-121.238282 0-74.132812 65.21875-130.328125 137.179687-121.261718-60.402344 7.382812-107.179687 58.863281-107.179687 121.261718 0 62.378906 46.777343 113.859375 107.179687 121.238282zm0 0" fill="#f9e27d"/><path d="m389.648438 257.976562c-4.550782-.410156-9.128907-.628906-13.703126-.628906-16.367187 0-32.78125 2.640625-48.566406 7.96875-6.269531 2.105469-12.371094 4.597656-18.28125 7.503906l-95.460937 46.703126-159.742188-86.675782c-4.816406-2.757812-10.046875-4.066406-15.226562-4.066406-10.605469 0-20.917969 5.519531-26.585938 15.375-8.425781 14.644531-3.363281 33.382812 11.308594 41.785156l157.925781 144.683594c.09375.074219.191406.171875.289063.242188 15.421875 11.765624 36 14.332031 54.160156 7.484374l127.636719-48.203124c14.164062-4.773438 29.003906-5.8125 43.191406-3.441407 8.28125 1.382813 16.34375 3.921875 23.96875 7.578125v-126.742187c-13.195312-5.085938-26.96875-8.28125-40.914062-9.566407zm0 0" fill="#ffbb98"/><path d="m491.089844 247.492188v158.859374c0 6.058594-4.898438 10.957032-10.957032 10.957032h-38.601562c-6.058594 0-10.960938-4.898438-10.960938-10.957032v-158.859374c0-6.042969 4.902344-10.960938 10.960938-10.960938h38.601562c6.058594 0 10.957032 4.917969 10.957032 10.960938zm0 0" fill="#5fcdff"/><path d="m491.089844 247.492188v158.859374c0 6.058594-4.898438 10.957032-10.957032 10.957032h-8.601562c-6.058594 0-10.960938-4.898438-10.960938-10.957032v-158.859374c0-6.042969 4.902344-10.960938 10.960938-10.960938h8.601562c6.058594 0 10.957032 4.917969 10.957032 10.960938zm0 0" fill="#30b6ff"/><path d="m389.648438 257.976562c-4.550782-.410156-9.128907-.628906-13.703126-.628906-16.367187 0-32.78125 2.640625-48.566406 7.96875-6.269531 2.105469-12.371094 4.597656-18.28125 7.503906l-95.460937 46.703126-15.132813 7.40625c-9.902344 4.988281-15.613281 15.011718-15.613281 25.371093 0 4.3125.964844 8.695313 3.046875 12.785157 7.070312 14.019531 24.140625 19.660156 38.15625 12.589843l117.203125-57.328125s33.957031-15.238281 75.613281-12.316406l13.65625 1.09375v-41.585938c-13.199218-5.082031-26.972656-8.277343-40.917968-9.5625zm0 0" fill="#ffcaa6"/><g fill="#5f266d"><path d="m213.566406 260.390625c71.777344 0 130.175782-58.394531 130.175782-130.175781 0-71.777344-58.398438-130.1757815-130.175782-130.1757815-71.78125 0-130.175781 58.3984375-130.175781 130.1757815 0 71.78125 58.394531 130.175781 130.175781 130.175781zm0-244.351563c62.957032 0 114.175782 51.21875 114.175782 114.175782 0 62.960937-51.222657 114.175781-114.175782 114.175781-62.957031 0-114.175781-51.21875-114.175781-114.175781 0-62.953125 51.21875-114.175782 114.175781-114.175782zm0 0"/><path d="m200.527344 138.214844h26.074218c8.324219 0 15.09375 6.773437 15.09375 15.09375 0 8.324218-6.769531 15.097656-15.09375 15.097656h-34.765624c-3.53125 0-6.402344-2.875-6.402344-6.40625 0-4.417969-3.582032-8-8-8-15 0-8.015625 30.40625 14.402344 30.40625h13.730468v16.582031c0 4.417969 3.582032 8 8 8 4.417969 0 8-3.582031 8-8v-16.582031h5.035156c17.148438 0 31.09375-13.953125 31.09375-31.097656 0-17.140625-13.949218-31.09375-31.09375-31.09375h-26.074218c-8.324219 0-15.09375-6.769532-15.09375-15.09375 0-8.324219 6.773437-15.09375 15.09375-15.09375h34.769531c3.53125 0 6.402344 2.875 6.402344 6.40625 0 4.417968 3.582031 8 8 8 15 0 8.015625-30.40625-14.402344-30.40625h-13.730469v-16.582032c0-4.417968-3.582031-8-8-8-4.417968 0-8 3.582032-8 8v16.582032h-5.039062c-17.144532 0-31.09375 13.949218-31.09375 31.09375 0 17.144531 13.949218 31.09375 31.09375 31.09375zm0 0"/><path d="m480.117188 229.0625h-38.597657c-10.457031 0-18.960937 8.507812-18.960937 18.960938v8.882812c-38.660156-11.78125-80.6875-8.59375-116.964844 9.25-.769531.375-91.085938 44.558594-91.738281 44.878906l-155.949219-84.609375c-29.792969-17.0625-65.457031 10.5625-56.503906 43.589844 4.269531 15.769531 14.625 20.511719 20.578125 25.96875 154.363281 141.425781 154.378906 141.4375 154.796875 141.75 17.308594 13.199219 41 16.46875 61.824218 8.597656l127.5-48.132812c18.507813-6.210938 38.367188-5.53125 56.460938 1.816406v6.835937c0 10.457032 8.503906 18.960938 18.957031 18.960938h38.597657c10.457031 0 18.964843-8.507812 18.964843-18.960938v-158.828124c-.003906-10.457032-8.507812-18.960938-18.964843-18.960938zm-57.558594 153.914062c-21.496094-7.148437-45.054688-6.191406-61.976563.203126l-127.636719 48.1875c-15.605468 5.898437-33.253906 3.546874-46.207031-6.160157-.984375-.898437-158.171875-145.023437-159.332031-145.683593-5.230469-2.996094-8.984375-7.859376-10.5625-13.691407-5.226562-19.285156 15.550781-35.578125 33.265625-25.433593l146.109375 79.269531c-36.402344 17.832031-22.660156 69.570312 15.1875 69.570312 11.1875 0 4.257812 1.984375 135.6875-62.304687 3.96875-1.941406 5.613281-6.734375 3.671875-10.699219-1.941406-3.96875-6.730469-5.613281-10.703125-3.671875l-119.550781 58.480469c-10.042969 5.066406-22.335938 1.007812-27.421875-9.074219-5.09375-10.007812-.957032-22.34375 8.953125-27.335938l4.011719-1.964843c15.414062-7.546875 6.46875-3.167969 106.582031-52.144531 34.117187-16.777344 73.867187-19.160157 109.921875-6.816407zm60.519531 23.878907c0 1.632812-1.328125 2.960937-2.960937 2.960937h-38.597657c-1.632812 0-2.960937-1.328125-2.960937-2.960937v-158.832031c0-1.632813 1.328125-2.960938 2.960937-2.960938h38.597657c1.632812 0 2.960937 1.328125 2.960937 2.960938zm0 0"/></g></svg>