<?xml version="1.0"?>
<svg xmlns="http://www.w3.org/2000/svg" xmlns:xlink="http://www.w3.org/1999/xlink" version="1.1" id="Layer_1" x="0px" y="0px" viewBox="0 0 512.142 512.142" style="enable-background:new 0 0 512.142 512.142;" xml:space="preserve" width="512px" height="512px" class=""><g><polygon style="fill:#E84D39" points="189.404,464.142 137.138,464.142 137.138,512.142 172.338,512.142 " data-original="#F05540" class="active-path" data-old_color="#F05540"/><g>
	<path style="fill:#000000" d="M66.738,139.876l3.2,11.733l365.867-91.733l-3.2-11.733c-7.467-29.867-38.4-48-68.267-40.533   l-257.067,64C77.404,79.076,59.271,110.009,66.738,139.876z" data-original="#415A6B" class="" data-old_color="#415A6B"/>
	<path style="fill:#000000" d="M197.938,49.209c-5.333-21.333,7.467-42.667,28.8-48s42.667,7.467,48,28.8L197.938,49.209z" data-original="#415A6B" class="" data-old_color="#415A6B"/>
</g><path style="fill:#D03A2CED" d="M398.471,451.342l44.8-266.667H67.804l44.8,266.667c2.133,10.667,10.667,18.133,21.333,18.133h243.2  C387.805,468.409,396.338,460.942,398.471,451.342z" data-original="#F3705A" class="" data-old_color="#F3705A"/><polygon style="fill:#E84D39" points="440.071,207.076 443.271,184.676 67.804,184.676 71.004,207.076 " data-original="#F05540" class="active-path" data-old_color="#F05540"/><path style="fill:#D03A2CED" d="M43.271,162.276L43.271,162.276c0,12.8,9.6,22.4,22.4,22.4h380.8c12.8,0,22.4-9.6,22.4-22.4l0,0  c0-12.8-9.6-22.4-22.4-22.4h-380.8C52.871,139.876,43.271,149.476,43.271,162.276z" data-original="#F3705A" class="" data-old_color="#F3705A"/><circle style="fill:#000000" cx="395.271" cy="454.542" r="57.6" data-original="#415A6B" class="" data-old_color="#415A6B"/><circle style="fill:#BFC6C2" cx="395.271" cy="454.542" r="25.6" data-original="#E8EAE9" class="" data-old_color="#E8EAE9"/><g>
	<path style="fill:#FFFFFF;" d="M320.604,314.809l-6.4,23.467l-22.4-5.333l14.933,25.6h-37.333v-12.8l-28.8,30.933l28.8,29.867   v-12.8h39.467c4.267,0,8.533-2.133,10.667-6.4l18.133-28.8c2.133-4.267,2.133-8.533,0-12.8L320.604,314.809z" data-original="#FFFFFF" class=""/>
	<path style="fill:#FFFFFF;" d="M220.338,375.609l16-17.067h-33.067l22.4-36.267l11.733,6.4l-11.733-40.533l-40.533,9.6l11.733,6.4   l-23.467,38.4c-2.133,4.267-2.133,9.6,0,12.8l18.133,28.8c2.133,4.267,6.4,6.4,10.667,6.4h34.133L220.338,375.609z" data-original="#FFFFFF" class=""/>
	<path style="fill:#FFFFFF;" d="M303.538,286.009l-19.2-32c-2.133-4.267-6.4-6.4-10.667-6.4h-35.2c-4.267,0-8.533,2.133-10.667,6.4   l-12.8,21.333l22.4-5.333l6.4,23.467l12.8-20.267l18.133,30.933l-11.733,6.4l40.533,9.6l11.733-39.467L303.538,286.009z" data-original="#FFFFFF" class=""/>
</g></g> </svg>
