<svg id="Capa_1" enable-background="new 0 0 512 512" height="512" viewBox="0 0 512 512" width="512" xmlns="http://www.w3.org/2000/svg" xmlns:xlink="http://www.w3.org/1999/xlink"><linearGradient id="SVGID_1_" gradientUnits="userSpaceOnUse" x1="453.606" x2="-8.165" y1="388.994" y2="124.461"><stop offset=".0033" stop-color="#ffb3b3"/><stop offset=".992" stop-color="#ffe8dc" stop-opacity="0"/></linearGradient><g><path d="m192.664 0c-39.223 0-74.182 22.903-91.892 57.9-4.74 9.368-11.512 18.548-21.144 26.373-38.525 31.302-15.78 79.458 31.839 108.352s6.686 91.497 45.211 235.966 89.089 72.234 120.391 0c22.327-51.524 82.754-117.355 115.569-150.869 14.075-14.374 21.92-33.711 21.92-53.828v-.535c0-21.635 9.435-41.911 25.064-56.871 18.129-17.353 27.063-46.698-54.201-79.806-67.72-27.59-104.741-49.954-124.671-65.052-18.34-13.893-40.601-21.63-63.609-21.63z" fill="url(#SVGID_1_)"/><g><path d="m419.062 483.571v-113.62h1.881c7.655 0 13.441-6.933 12.072-14.465l-10.78-59.289c-1.148-6.314-4.724-11.927-9.961-15.636l-19.475-13.793h56.351c9.797 0 17.738-18.301 17.738-40.875s-7.942-40.875-17.738-40.875h-162.901c.902-3.386 1.389-6.942 1.389-10.612v-14.916s22.478 13.753 22.478-46.324c0-43.603-45.713-37.977-45.713-37.977h-58.261c-4.647 0-8.877-2.304-11.804-5.914-4.532-5.591-13.625-2.4-13.625 4.842v15.091c0 14.866 10.593 27.255 24.641 30.039v55.158c0 3.67.487 7.226 1.389 10.612h-143.893c-9.797 0-17.738 18.3-17.738 40.875s7.942 40.875 17.738 40.875h56.351l-19.475 13.793c-5.237 3.709-8.813 9.322-9.961 15.636l-10.78 59.289c-1.369 7.532 4.417 14.465 12.072 14.465h1.881v113.62c0 5.523 4.477 10 10 10h306.124c5.523.001 10-4.476 10-9.999z" fill="#00c" opacity=".1"/><g><g><path d="m62.85 161.017h386.3v81.751h-386.3z" fill="#ffd6bb"/><path d="m169.168 180.005h-28.855c-2.761 0-5-2.239-5-5v-13.987h38.855v13.987c0 2.761-2.239 5-5 5z" fill="#ff6c6c"/><path d="m411.126 242.768c-9.797 0-17.738-18.3-17.738-40.875s7.942-40.875 17.738-40.875h38.024v81.751h-38.024z" fill="#ffab66"/><path d="m100.874 242.768c9.797 0 17.738-18.3 17.738-40.875s-7.942-40.875-17.738-40.875h-38.024v81.751h38.024z" fill="#ffab66"/><g fill="#ff9d33"><ellipse cx="62.85" cy="201.892" rx="17.738" ry="40.875"/><ellipse cx="449.15" cy="201.892" rx="17.738" ry="40.875"/></g></g><g><g><g><path d="m361.714 337.984h57.348v131.587h-57.348z" fill="#ff9494"/><path d="m361.714 337.984h57.348v26.539h-57.348z" fill="#ff6c6c"/><path d="m422.235 272.197 10.78 59.289c1.369 7.532-4.417 14.465-12.072 14.465h-59.229v-125.199l50.56 35.809c5.237 3.709 8.813 9.322 9.961 15.636z" fill="#ff4d4d"/></g><g><path d="m92.938 337.984h57.348v131.587h-57.348z" fill="#ff9494"/><path d="m92.938 337.984h57.348v26.539h-57.348z" fill="#ff6c6c"/><path d="m89.765 272.197-10.78 59.289c-1.369 7.532 4.417 14.465 12.072 14.465h59.229v-125.199l-50.56 35.809c-5.237 3.709-8.813 9.322-9.961 15.636z" fill="#ff4d4d"/></g></g><g><path d="m319.387 206.397 48.059 22.086v241.088h-222.892v-241.088l48.059-22.086z" fill="#ff4d4d"/><path d="m367.445 228.48v184.87c-4.03 1.23-8.7.46-12.23-3.07l-19.04-19.05c-6.9-6.9-10.78-16.26-10.78-26.03v-156.04z" fill="#ff2c2c"/><path d="m186.605 209.16v156.04c0 9.77-3.88 19.13-10.78 26.03l-19.04 19.05c-3.53 3.53-8.2 4.3-12.23 3.07v-184.87z" fill="#ff2c2c"/><path d="m307.66 206.397c0 28.531-23.129 51.66-51.66 51.66s-51.66-23.129-51.66-51.66z" fill="#ff9494"/><g><g><path d="m325.392 208.982v133.698c0 9.763 3.878 19.125 10.781 26.028l19.045 19.045c7.73 7.73 20.946 2.255 20.946-8.676v-158.325c0-4.833-2.837-9.216-7.247-11.195l-26.232-11.77c-8.118-3.642-17.293 2.297-17.293 11.195z" fill="#6c6cff"/><path d="m325.392 256.213h50.772v21.679h-50.772z" fill="#b3b3ff"/></g><g><path d="m186.608 208.982v133.698c0 9.763-3.878 19.125-10.781 26.028l-19.045 19.045c-7.73 7.73-20.946 2.255-20.946-8.676v-158.325c0-4.833 2.837-9.216 7.247-11.195l26.232-11.77c8.118-3.642 17.293 2.297 17.293 11.195z" fill="#6c6cff"/><path d="m159.683 314.702h-23.847v13.521h23.847c2.761 0 5-2.239 5-5v-3.521c0-2.762-2.239-5-5-5z" fill="#ff9494"/></g></g></g></g><g><g><path d="m237.105 171.13h37.79v48.28h-37.79z" fill="#ff9494"/><path d="m274.895 171.13v27.69c-8.33 4.91-18.05 7.73-28.4 7.73-3.2 0-6.34-.27-9.39-.79v-34.63z" fill="#ff6c6c"/></g><g><path d="m205.355 91.682v58.723c0 22.722 18.42 41.141 41.141 41.141 22.722 0 41.141-18.42 41.141-41.141v-58.723z" fill="#ff9494"/><path d="m211.343 95.837h64.374s-1.213 26.52 11.921 39.654c0 0 22.479 13.753 22.479-46.325 0-43.603-45.713-37.977-45.713-37.977h-57.995c-4.679 0-9.1-2.145-11.996-5.82-4.506-5.719-13.699-2.533-13.699 4.748v15.091c0 16.916 13.713 30.629 30.629 30.629z" fill="#ffd6bb"/><circle cx="284.642" cy="131.971" fill="#ff9494" r="17.738"/></g></g><g fill="#00c"><path d="m449.15 156.018h-156.866c.111-.91.199-1.826.256-2.751 2.997-1.108 5.801-2.839 8.18-5.218 4.249-4.248 6.438-9.774 6.615-15.352 5.229-8.55 7.781-22.795 7.781-43.531 0-13.945-4.311-24.828-12.811-32.347-14.238-12.592-35.164-10.946-38.178-10.63h-57.719c-3.167 0-6.107-1.428-8.068-3.916-3.392-4.303-8.929-5.926-14.104-4.13-5.177 1.794-8.522 6.494-8.522 11.974v15.091c0 15.812 10.357 29.244 24.641 33.887v51.31c0 20.418 13.336 37.771 31.752 43.832v7.16h-39.493c-.721 0-1.433.156-2.088.457l-.379.174c-1.335-3.04-3.535-5.674-6.424-7.544-4.936-3.196-11.088-3.666-16.454-1.259l-26.232 11.77c-6.196 2.779-10.2 8.965-10.2 15.757v7.646l-13.227 9.37h-40.264c5.092-8.27 8.241-21.034 8.241-35.875s-3.15-27.605-8.241-35.875h93.514c2.762 0 5-2.238 5-5s-2.238-5-5-5h-108.01c-12.963 0-22.738 19.722-22.738 45.875s9.775 45.875 22.738 45.875h40.642l-6.65 4.711c-6.354 4.498-10.612 11.187-11.991 18.827l-10.779 59.289c-.92 5.053.439 10.211 3.729 14.152 2.612 3.13 6.201 5.176 10.138 5.897v118.926c0 2.762 2.238 5 5 5s5-2.238 5-5v-118.62h32.898v28.127c0 6.385 3.294 11.953 8.719 15v75.493c0 2.762 2.238 5 5 5s5-2.238 5-5v-73.246c3.965-.317 7.755-2.027 10.763-5.036l19.044-19.044c7.897-7.896 12.246-18.396 12.246-29.564v-130.318l2.1-.965h38.399v8.009c0 2.762 2.238 5 5 5s5-2.238 5-5v-23.073c1.446.137 2.909.214 4.39.214 8.536 0 16.532-2.339 23.397-6.396v29.255c0 2.762 2.238 5 5 5s5-2.238 5-5v-8.009h38.399l2.1.965v130.318c0 11.168 4.349 21.668 12.246 29.564l19.044 19.044c3.009 3.01 6.797 4.719 10.763 5.036v73.246c0 2.762 2.238 5 5 5s5-2.238 5-5v-75.493c5.424-3.047 8.719-8.616 8.719-15v-28.126h32.898v118.619c0 2.762 2.238 5 5 5s5-2.238 5-5v-118.925c3.936-.72 7.526-2.768 10.139-5.898 3.291-3.943 4.651-9.103 3.732-14.155l-10.779-59.288c-1.39-7.646-5.647-14.331-11.99-18.823l-6.654-4.713h40.641c12.963 0 22.738-19.722 22.738-45.875s-9.778-45.875-22.741-45.875zm-399.039 45.875c0-21.899 7.545-35.875 12.738-35.875s12.738 13.976 12.738 35.875-7.545 35.875-12.738 35.875-12.738-13.976-12.738-35.875zm131.496 140.787c0 8.497-3.309 16.485-9.316 22.494l-19.044 19.044c-2.151 2.15-5.115 2.738-7.923 1.575-2.811-1.164-4.488-3.675-4.488-6.716v-32.927c.003-.066.004-.133.004-.2 0-2.762-2.238-5-5-5h-44.78c-2.163 0-4.197-.951-5.582-2.61-1.384-1.658-1.955-3.828-1.568-5.955l10.781-59.297c.911-5.052 3.728-9.473 7.931-12.448l28.215-19.987v69.008c0 2.762 2.238 5 5 5s5-2.238 5-5v-78.476c.006-.139.006-.277 0-.416v-10.017c0-2.859 1.686-5.463 4.294-6.634l26.232-11.77c2.294-1.027 4.816-.835 6.926.53s3.319 3.59 3.319 6.104v133.698zm4.107-277.472v-15.091c0-1.717 1.257-2.338 1.798-2.525.54-.187 1.911-.476 2.975.871 3.869 4.91 9.673 7.727 15.923 7.727h57.994c.197 0 .405-.013.601-.036.19-.023 19.09-2.135 30.716 8.192 6.235 5.537 9.396 13.888 9.396 24.82 0 13.308-1.128 22.441-2.649 28.708-.542-.684-1.116-1.35-1.748-1.982-5.15-5.15-12.262-7.352-19.104-6.435-1.142-7.387-.907-13.327-.904-13.392.063-1.364-.437-2.694-1.38-3.683-.943-.987-2.249-1.546-3.615-1.546h-64.374c-14.132.001-25.629-11.496-25.629-25.628zm24.64 85.197v-49.594c.329.009.657.025.988.025h59.409c.124 3.156.467 7.475 1.325 12.208-.084.056-.173.102-.256.159-2.278 1.56-2.861 4.671-1.302 6.95 1.56 2.278 4.672 2.861 6.95 1.302 5.047-3.454 11.852-2.82 16.181 1.507 4.967 4.967 4.967 13.049 0 18.016-4.328 4.327-11.133 4.961-16.181 1.507-2.281-1.56-5.391-.977-6.95 1.302-1.56 2.279-.977 5.391 1.302 6.95 3.235 2.214 6.875 3.475 10.569 3.841-2.077 17.969-17.376 31.968-35.893 31.968-19.929.001-36.142-16.212-36.142-36.141zm129.355 214.769c-6.008-6.009-9.316-13.997-9.316-22.494v-133.698c0-2.514 1.21-4.738 3.319-6.104 1.214-.786 2.564-1.184 3.93-1.184 1.008 0 2.022.217 2.996.653l26.232 11.77c2.608 1.171 4.294 3.774 4.294 6.634v158.325c0 3.041-1.678 5.552-4.488 6.716-2.809 1.163-5.771.575-7.923-1.575zm77.606-92.082 10.78 59.289c.387 2.127-.187 4.299-1.572 5.958-1.385 1.66-3.419 2.612-5.581 2.612h-39.778v-100.298l28.221 19.987c4.194 2.972 7.011 7.394 7.93 12.452zm-36.151-44.692v-7.648c0-6.792-4.004-12.978-10.2-15.757l-26.232-11.77c-5.365-2.408-11.518-1.937-16.454 1.259-2.889 1.87-5.089 4.504-6.424 7.544l-.38-.175c-.654-.301-1.366-.456-2.087-.456h-39.493v-19.205c4.378-4.598 7.824-10.088 10.02-16.175h144.74c-5.092 8.27-8.241 21.034-8.241 35.875s3.15 27.605 8.241 35.875h-40.264zm67.986 9.368c-5.193 0-12.738-13.976-12.738-35.875s7.545-35.875 12.738-35.875 12.738 13.976 12.738 35.875-7.544 35.875-12.738 35.875z"/><path d="m449.15 190.267c-2.762 0-5 2.238-5 5v11.131c0 2.762 2.238 5 5 5s5-2.238 5-5v-11.131c0-2.762-2.238-5-5-5z"/><path d="m62.85 211.397c2.762 0 5-2.238 5-5v-11.131c0-2.762-2.238-5-5-5s-5 2.238-5 5v11.131c0 2.762 2.238 5 5 5z"/></g><g><path d="m304.079 378.138 3.581 5.57c-4.842 4.975-10.214 7.461-16.115 7.461-4.511 0-8.307-1.228-11.39-3.68-3.084-2.453-5.787-6.765-8.108-12.932-6.301 6.632-11.838 11.059-16.613 13.28s-10.512 3.332-17.209 3.332c-9.55 0-16.812-2.056-21.786-6.167s-7.461-9.384-7.461-15.816c0-9.682 5.686-17.722 17.06-24.124 11.373-6.398 26.511-10.66 45.411-12.782v-14.126c0-5.039-2.024-9.351-6.068-12.932-4.045-3.581-9.186-5.371-15.418-5.371-5.77 0-10.744 1.194-14.922 3.581-2.985 1.79-4.477 3.549-4.477 5.272 0 .995.796 2.554 2.387 4.675 1.923 2.654 2.885 5.009 2.885 7.063 0 2.985-.962 5.422-2.885 7.312-1.924 1.89-4.444 2.835-7.56 2.835-3.317 0-6.085-1.127-8.306-3.382-2.223-2.254-3.333-5.139-3.333-8.654 0-6.566 3.696-12.567 11.092-18.006 7.394-5.437 17.093-8.157 29.097-8.157 11.075 0 19.53 2.387 25.367 7.162 5.835 4.842 8.754 10.711 8.754 17.608v50.932c0 4.511.729 7.826 2.189 9.948 1.458 2.188 3.348 3.282 5.67 3.282 2.588-.001 5.306-1.061 8.158-3.184zm-32.628-39.294c-16.846 2.323-28.783 6.103-35.811 11.341-5.24 3.979-7.859 9.617-7.859 16.911 0 5.108 1.358 9.102 4.078 11.986 2.719 2.885 6.267 4.328 10.644 4.328 7.824 0 14.606-2.967 20.343-8.903 5.736-5.934 8.604-13.379 8.604-22.332v-13.331z" fill="#fff"/></g></g><path d="m464.764 274.455h-13.794c-2.762 0-5 2.238-5 5s2.238 5 5 5h1.723l-5.258 5.258c-1.953 1.952-1.953 5.118 0 7.07.976.977 2.256 1.465 3.535 1.465s2.56-.488 3.535-1.465l5.259-5.259v1.724c0 2.762 2.238 5 5 5s5-2.238 5-5v-13.793c0-2.762-2.239-5-5-5z" fill="#4d4dff"/><path d="m374.342 109.232h-1.723l5.258-5.258c1.953-1.952 1.953-5.118 0-7.07-1.951-1.953-5.119-1.953-7.07 0l-5.258 5.258v-1.723c0-2.762-2.238-5-5-5s-5 2.238-5 5v13.793c0 2.762 2.238 5 5 5h13.793c2.762 0 5-2.238 5-5s-2.238-5-5-5z" fill="#ff8b00"/><g fill="#ff4d4d"><path d="m353.317 52.801h-13.794c-2.762 0-5 2.238-5 5s2.238 5 5 5h1.724l-5.259 5.259c-1.953 1.952-1.953 5.118 0 7.07.976.977 2.256 1.465 3.535 1.465s2.56-.488 3.535-1.465l5.259-5.259v1.724c0 2.762 2.238 5 5 5s5-2.238 5-5v-13.794c0-2.762-2.238-5-5-5z"/><path d="m73.282 398.102c-1.951-1.953-5.119-1.953-7.07 0l-5.259 5.259v-1.724c0-2.762-2.238-5-5-5s-5 2.238-5 5v13.794c0 2.762 2.238 5 5 5h13.794c2.762 0 5-2.238 5-5s-2.238-5-5-5h-1.724l5.259-5.259c1.953-1.952 1.953-5.118 0-7.07z"/><path d="m158.275 38.895c-1.951-1.953-5.119-1.953-7.07 0l-5.259 5.259v-1.724c0-2.762-2.238-5-5-5s-5 2.238-5 5v13.793c0 2.762 2.238 5 5 5h13.794c2.762 0 5-2.238 5-5s-2.238-5-5-5h-1.723l5.258-5.258c1.954-1.952 1.954-5.118 0-7.07z"/></g></g></g></svg>