<?xml version="1.0"?>
<svg xmlns="http://www.w3.org/2000/svg" id="filled_outline" data-name="filled outline" viewBox="0 0 512 512" width="512" height="512"><path d="M304,336l101.94481,53.97078A64,64,0,0,1,440,446.53321V488H72V446.53321a64,64,0,0,1,34.05519-56.56243L208,336Z" style="fill:#6173e8"/><path d="M304,296v40a48,48,0,0,1-48,48H256a48,48,0,0,1-48-48V296Z" style="fill:#ffbfa1"/><path d="M256,64H200a32,32,0,0,0-32,32v16h88Z" style="fill:#a36522"/><path d="M200,144V111.99994A55.99994,55.99994,0,0,1,255.99994,56h32.00012A55.99994,55.99994,0,0,1,344,111.99994V144Z" style="fill:#b1712c"/><path d="M168,112h32l26.28013,15.76808A57.765,57.765,0,0,0,256,136h0a57.76508,57.76508,0,0,0,29.71986-8.23192L312,112h32V232.00009A87.99991,87.99991,0,0,1,256.00009,320h-.00018A87.99991,87.99991,0,0,1,168,232.00009Z" style="fill:#ffceb6"/><path d="M272,240V224H256v16a16.01833,16.01833,0,0,1-16,16h-8v16h8A32.036,32.036,0,0,0,272,240Z"/><circle cx="220" cy="204" r="12"/><circle cx="292" cy="204" r="12"/><path d="M64,446.5332V488a7.99977,7.99977,0,0,0,8,8H440a7.99977,7.99977,0,0,0,8-8V446.5332a71.83893,71.83893,0,0,0-38.312-63.63281L312,331.18335V309.92651A95.9379,95.9379,0,0,0,352,232V112a64.0727,64.0727,0,0,0-64-64H256a63.59193,63.59193,0,0,0-30.93994,8H200a40.04521,40.04521,0,0,0-40,40V232a95.93806,95.93806,0,0,0,40,77.92651v21.25684l-97.688,51.717A71.83893,71.83893,0,0,0,64,446.5332ZM288,64a48.06908,48.06908,0,0,1,47.32056,40H312a7.9971,7.9971,0,0,0-4.11572,1.14014L281.60352,120.9082a49.765,49.765,0,0,1-51.20752,0l-22.18567-13.31134A48.05955,48.05955,0,0,1,256,64Zm-88,8h6.09314a63.69357,63.69357,0,0,0-13.57532,32H176V96A24.0275,24.0275,0,0,1,200,72ZM176,232V120h21.78418l24.37988,14.62793a65.764,65.764,0,0,0,67.67139,0L314.21582,120H336V232a80,80,0,0,1-160,0Zm80,96a95.4323,95.4323,0,0,0,40-8.74084V336a40,40,0,0,1-80,0V319.25916A95.4321,95.4321,0,0,0,256,328Zm-54.56915,20.52979a55.986,55.986,0,0,0,109.13824,0L402.20166,397.041A55.87494,55.87494,0,0,1,432,446.5332V480H80V446.5332A55.87494,55.87494,0,0,1,109.79834,397.041Z"/><path d="M128,32h32V16H120a7.99977,7.99977,0,0,0-8,8V64h16Z"/><path d="M400,64V24a7.99977,7.99977,0,0,0-8-8H352V32h32V64Z"/><path d="M112,320a7.99977,7.99977,0,0,0,8,8h40V312H128V280H112Z"/><path d="M352,328h40a7.99977,7.99977,0,0,0,8-8V280H384v32H352Z"/><rect x="192" y="160" width="40" height="16"/><rect x="280" y="160" width="40" height="16"/></svg>
