<?xml version="1.0" encoding="iso-8859-1"?>
<!-- Generator: Adobe Illustrator 19.0.0, SVG Export Plug-In . SVG Version: 6.00 Build 0)  -->
<svg version="1.1" id="Capa_1" xmlns="http://www.w3.org/2000/svg" xmlns:xlink="http://www.w3.org/1999/xlink" x="0px" y="0px"
	 viewBox="0 0 511.974 511.974" style="enable-background:new 0 0 511.974 511.974;" xml:space="preserve">
<g>
	<g transform="translate(1 1)">
		<path style="fill:#C52828;" d="M502.441,195.237V485.37c-0.028,9.414-7.653,17.039-17.067,17.067h-460.8
			c-9.414-0.028-17.039-7.653-17.067-17.067V195.237l3.584-2.731l2.133,2.731h483.499l2.133-2.731L502.441,195.237z"/>
		<path style="fill:#F44335;" d="M476.841,195.237V485.37c-0.028,9.414-7.653,17.039-17.067,17.067h-435.2
			c-0.57,0.016-1.141-0.012-1.707-0.085c-0.404-0.009-0.805-0.066-1.195-0.171c-4.348-0.761-8.233-3.177-10.837-6.741
			c-2.181-2.902-3.35-6.439-3.328-10.069V195.237h463.616l2.133-2.731L476.841,195.237z"/>
		<path style="fill:#FF5722;" d="M498.857,192.506l-2.133,2.731l-233.216,179.2h-17.067l-233.216-179.2l-2.133-2.731l81.749-63.573
			L205.31,41.637l39.339-30.549c6.054-4.779,14.596-4.779,20.651,0l39.339,30.549l112.469,87.296L498.857,192.506z"/>
		<path style="fill:#CFD8DC;" d="M417.108,58.704v197.717l-25.6,19.712l-128,98.304h-17.067l-153.6-118.016V58.704
			c0.028-9.414,7.653-17.039,17.067-17.067h290.133C409.455,41.665,417.08,49.29,417.108,58.704z"/>
		<path style="fill:#F5F5F5;" d="M391.508,58.704v217.429l-128,98.304h-17.067l-153.6-118.016V58.704
			c0.028-9.414,7.653-17.039,17.067-17.067h264.533C383.855,41.665,391.48,49.29,391.508,58.704z"/>
		<path style="fill:#D84315;" d="M499.113,495.44c-3.185,4.409-8.299,7.014-13.739,6.997l-25.6,0
			c9.414-0.028,17.039-7.653,17.067-17.067v-7.253L499.113,495.44z"/>
		<path style="fill:#FF5722;" d="M476.841,478.117v7.253c-0.028,9.414-7.653,17.039-17.067,17.067h-435.2
			c-0.57,0.016-1.141-0.012-1.707-0.085c-0.404-0.009-0.805-0.066-1.195-0.171c-4.348-0.761-8.233-3.177-10.837-6.741
			l195.499-151.808l38.315-29.781c6.054-4.779,14.596-4.779,20.651,0l38.315,29.781L476.841,478.117z"/>
	</g>
	<g>
		<path d="M511.522,193.993c-0.117-0.503-0.28-0.994-0.486-1.468c-0.239-0.463-0.525-0.901-0.853-1.306
			c-0.329-0.481-0.71-0.924-1.135-1.323c-0.137-0.119-0.196-0.282-0.341-0.401l-82.065-63.735V59.704
			c0-14.138-11.462-25.6-25.6-25.6h-92.476L271.539,5.355c-9.147-7.134-21.974-7.134-31.121,0l-37.035,28.749h-92.476
			c-14.138,0-25.6,11.462-25.6,25.6v66.057L3.268,189.496c-0.145,0.119-0.205,0.282-0.341,0.401
			c-0.425,0.398-0.806,0.842-1.135,1.323c-0.328,0.405-0.614,0.842-0.853,1.306c-0.207,0.473-0.369,0.965-0.486,1.468
			c-0.178,0.555-0.295,1.127-0.35,1.707c0,0.179-0.102,0.333-0.102,0.512V486.37c0.012,5.428,1.768,10.708,5.009,15.061
			c0.051,0.077,0.06,0.171,0.119,0.239c0.06,0.068,0.188,0.145,0.273,0.239c4.794,6.308,12.25,10.027,20.173,10.061h460.8
			c7.954-0.024,15.441-3.761,20.241-10.103c0.068-0.085,0.171-0.111,0.23-0.196c0.06-0.085,0.068-0.162,0.119-0.239
			c3.241-4.353,4.998-9.634,5.009-15.061V196.237c0-0.179-0.094-0.333-0.102-0.512C511.819,195.137,511.702,194.556,511.522,193.993
			z M250.854,18.82c2.98-2.368,7.2-2.368,10.18,0l19.686,15.283h-49.493L250.854,18.82z M93.841,221.837
			c4.713,0,8.533-3.821,8.533-8.533v-153.6c0-4.713,3.821-8.533,8.533-8.533h290.133c4.713,0,8.533,3.821,8.533,8.533v153.6
			c0,4.713,3.82,8.533,8.533,8.533s8.533-3.821,8.533-8.533v-65.937l60.032,46.652l-142.31,110.507
			c-2.448,1.855-3.711,4.883-3.305,7.928c0.406,3.045,2.417,5.637,5.266,6.786c2.849,1.149,6.096,0.679,8.501-1.232l140.083-108.774
			V481.6L271.539,308.117c-9.149-7.128-21.972-7.128-31.121,0L17.041,481.6V209.233L156.877,317.82
			c3.726,2.889,9.088,2.211,11.977-1.515s2.211-9.088-1.515-11.977L25.276,194.018l60.032-46.652v65.937
			C85.308,218.016,89.128,221.837,93.841,221.837z M484.224,494.904H27.725l223.13-173.321c2.982-2.364,7.199-2.364,10.18,0
			L484.224,494.904z"/>
		<path d="M255.974,273.037c4.713,0,8.533-3.82,8.533-8.533s-3.821-8.533-8.533-8.533c-47.128,0-85.333-38.205-85.333-85.333
			s38.205-85.333,85.333-85.333s85.333,38.205,85.333,85.333v34.133c0,9.426-7.641,17.067-17.067,17.067
			s-17.067-7.641-17.067-17.067v-34.133c0-4.713-3.82-8.533-8.533-8.533s-8.533,3.82-8.533,8.533
			c0,18.851-15.282,34.133-34.133,34.133s-34.133-15.282-34.133-34.133s15.282-34.133,34.133-34.133
			c4.713,0,8.533-3.821,8.533-8.533c0-4.713-3.821-8.533-8.533-8.533c-22.915-0.051-43.074,15.13-49.354,37.168
			c-6.28,22.038,2.847,45.565,22.347,57.601c19.5,12.036,44.622,9.649,61.507-5.843c1.858,18.046,17.543,31.464,35.659,30.505
			c18.116-0.959,32.297-15.956,32.241-34.098v-34.133c0-56.554-45.846-102.4-102.4-102.4s-102.4,45.846-102.4,102.4
			S199.42,273.037,255.974,273.037z"/>
	</g>
</g>
<g>
</g>
<g>
</g>
<g>
</g>
<g>
</g>
<g>
</g>
<g>
</g>
<g>
</g>
<g>
</g>
<g>
</g>
<g>
</g>
<g>
</g>
<g>
</g>
<g>
</g>
<g>
</g>
<g>
</g>
</svg>
